<svg width="560" height="486" viewBox="0 0 560 486" fill="none" xmlns="http://www.w3.org/2000/svg">
<path d="M554.842 5.584L280.167 481.335L5.4924 5.584H554.842Z" stroke="#EBEBEB"/>
<path d="M5 10C7.76142 10 10 7.76142 10 5C10 2.23858 7.76142 0 5 0C2.23858 0 0 2.23858 0 5C0 7.76142 2.23858 10 5 10Z" fill="#F2F2F2"/>
<path d="M280 486C282.761 486 285 483.761 285 481C285 478.239 282.761 476 280 476C277.239 476 275 478.239 275 481C275 483.761 277.239 486 280 486Z" fill="#F2F2F2"/>
<path d="M555 10C557.761 10 560 7.76142 560 5C560 2.23858 557.761 0 555 0C552.239 0 550 2.23858 550 5C550 7.76142 552.239 10 555 10Z" fill="#F2F2F2"/>
</svg>
